# Blender 5.1.2
# www.blender.org
mtllib player.mtl
o ICO球
v 0.008455 -0.063202 0.000066
v -0.228628 0.184193 0.352693
v -0.369379 0.184193 -0.138027
v 0.012094 0.171193 -0.469507
v 0.394529 0.181335 -0.134294
v 0.243748 0.181335 0.361948
v -0.399437 0.550459 0.142017
v -0.239994 0.550459 -0.381775
v 0.262792 0.550459 -0.377878
v 0.414096 0.550459 0.148322
v 0.004552 0.584192 0.503672
v 0.004476 0.784853 0.000136
v -0.210592 0.029447 -0.079992
v -0.120260 0.046779 0.193948
v -0.347936 0.156021 0.124098
v 0.005663 0.156509 0.414633
v 0.137379 0.043245 0.198033
v 0.010594 0.000126 -0.275941
v -0.208627 0.156022 -0.333564
v 0.232999 0.023002 -0.078079
v 0.235002 0.152039 -0.336581
v 0.369772 0.152038 0.132126
v -0.144794 0.394719 0.459530
v 0.154563 0.394719 0.461850
v -0.469729 0.360826 -0.003640
v -0.380796 0.360826 0.305654
v -0.135441 0.360826 -0.500384
v -0.364944 0.369141 -0.329299
v 0.397705 0.360826 -0.305523
v 0.160089 0.360826 -0.498093
v 0.392921 0.360826 0.311650
v 0.486639 0.360826 0.003772
v -0.233436 0.583752 0.359511
v -0.391631 0.571923 -0.125814
v 0.011916 0.583752 -0.446523
v 0.396380 0.583753 -0.134942
v 0.244745 0.583752 0.363217
v -0.231518 0.721526 0.095654
v 0.006316 0.721526 0.276073
v -0.137579 0.721526 -0.224373
v 0.157949 0.721526 -0.222083
v 0.246337 0.721526 0.075069
v 0.004551 0.437184 0.576800
v 0.003986 0.437909 0.576677
v 0.003418 0.437184 0.576791
v 0.075050 0.404765 0.598963
v 0.003659 0.494935 0.618867
v -0.067416 0.404765 0.597859
v 0.023219 0.413465 0.662738
v 0.003276 0.438654 0.668298
v -0.016579 0.413465 0.662430
v -0.101069 -0.016877 -0.039963
v -0.174444 0.115486 0.273320
v -0.358657 0.170107 -0.006965
v -0.111483 0.170351 0.383663
v 0.190564 0.112290 0.279990
v 0.009524 -0.031538 -0.137938
v -0.098267 0.163608 -0.401535
v 0.120727 -0.020100 -0.039007
v 0.314766 0.166687 -0.235437
v 0.306760 0.166687 0.247036
v -0.186711 0.289457 0.406112
v 0.079558 0.489456 0.482761
v -0.419554 0.272509 -0.070834
v -0.390116 0.455642 0.223835
v -0.061673 0.266010 -0.484945
v -0.296703 0.467611 -0.339699
v 0.396116 0.271080 -0.219908
v 0.211440 0.455642 -0.437986
v 0.318335 0.271080 0.336799
v 0.450367 0.455642 0.076047
v -0.316436 0.567106 0.250764
v -0.310047 0.569001 -0.237956
v 0.137354 0.567106 -0.412201
v 0.405238 0.567106 0.006689
v 0.124648 0.583972 0.433444
v -0.315367 0.635993 0.112759
v 0.009223 0.753189 0.138037
v -0.188787 0.635993 -0.303075
v 0.210371 0.635993 -0.299981
v 0.330490 0.635993 0.117765
v -0.289985 0.106820 -0.109010
v -0.055903 -0.008212 0.097007
v -0.288282 0.170107 0.238395
v 0.124706 0.168922 0.388290
v 0.072917 -0.009978 0.099049
v 0.011344 0.085660 -0.372724
v -0.289003 0.170107 -0.235796
v 0.313763 0.102169 -0.106186
v 0.123548 0.161617 -0.403044
v 0.382151 0.166687 -0.001083
v -0.070122 0.489456 0.481601
v 0.199156 0.288027 0.411899
v -0.434583 0.455642 0.069188
v -0.304712 0.272509 0.329173
v -0.187718 0.455642 -0.441079
v -0.372696 0.272509 -0.224773
v 0.330249 0.455642 -0.341701
v 0.086091 0.266010 -0.483800
v 0.403509 0.455642 0.229986
v 0.440584 0.271080 -0.065261
v -0.114443 0.583972 0.431591
v -0.388384 0.567106 0.000539
v -0.114039 0.567106 -0.414149
v 0.329586 0.567106 -0.256410
v 0.329421 0.567106 0.255769
v -0.113521 0.753190 0.047895
v 0.005434 0.652859 0.389873
v -0.064563 0.753190 -0.112154
v 0.083202 0.753190 -0.111009
v 0.125407 0.753190 0.037602
v 0.130154 0.721526 0.175503
v 0.125530 0.652639 0.319645
v 0.245814 0.652640 0.225212
v 0.202416 0.721526 -0.067438
v 0.321632 0.652640 -0.023868
v 0.277165 0.652640 -0.178512
v 0.010185 0.721526 -0.223228
v 0.084932 0.652640 -0.334303
v -0.062832 0.652640 -0.335449
v -0.184438 0.721526 -0.070436
v -0.257456 0.652640 -0.182655
v -0.304314 0.652640 -0.028719
v -0.108775 0.721526 0.185796
v -0.232367 0.652640 0.221506
v -0.113561 0.652639 0.317792
v 0.199654 0.489236 0.412534
v 0.273742 0.377773 0.386750
v 0.318833 0.472289 0.337433
v 0.441509 0.472289 -0.065586
v 0.442171 0.360826 -0.150876
v 0.397042 0.472289 -0.220233
v 0.086002 0.472289 -0.472308
v 0.012324 0.360826 -0.499238
v -0.061762 0.472289 -0.473453
v -0.378288 0.470532 -0.227557
v -0.427944 0.352232 -0.183945
v -0.423531 0.472289 -0.072290
v -0.307116 0.472289 0.332582
v -0.262795 0.377773 0.382592
v -0.189115 0.489236 0.409521
v 0.439780 0.360826 0.157711
v 0.381347 0.256432 0.221888
v 0.428205 0.256432 0.067949
v 0.278897 0.360826 -0.401808
v 0.316353 0.256433 -0.321052
v 0.197546 0.256433 -0.417337
v -0.255726 0.360826 -0.405951
v -0.172034 0.258424 -0.416973
v -0.292320 0.258424 -0.322541
v -0.425262 0.360826 0.151007
v -0.408833 0.258424 0.060229
v -0.364366 0.258424 0.214876
v 0.004885 0.394719 0.460690
v -0.069566 0.275615 0.437082
v 0.080113 0.275615 0.438242
v 0.253575 0.097642 0.165079
v 0.185189 0.033124 0.059977
v 0.301385 0.087520 0.027024
v 0.234001 0.087520 -0.207330
v 0.121796 0.011564 -0.177010
v 0.122798 0.076082 -0.306261
v -0.099017 0.078074 -0.304753
v -0.099999 0.014787 -0.177967
v -0.209609 0.092735 -0.206778
v 0.071521 0.099877 0.306333
v -0.057299 0.101644 0.304291
v 0.008560 0.045012 0.195991
v -0.279264 0.092734 0.022053
v -0.165426 0.038114 0.056978
v -0.234098 0.101400 0.159023
v 0.004269 0.437547 0.576738
v 0.003702 0.437547 0.576734
v 0.003985 0.437184 0.576795
v 0.004105 0.539564 0.561269
v -0.006581 0.425324 0.619610
v 0.003631 0.438282 0.622488
v 0.039355 0.449850 0.608914
v -0.031879 0.449850 0.608362
v 0.003818 0.404765 0.598411
v 0.013247 0.426059 0.665518
v -0.006652 0.426059 0.665364
v 0.003320 0.413465 0.662584
v 0.049135 0.409114 0.630851
v -0.041998 0.409114 0.630144
v 0.003467 0.466794 0.643582
v 0.114807 0.399742 0.530407
v -0.106105 0.399742 0.528695
v 0.013885 0.425324 0.619769
v 0.008758 0.431803 0.621128
v 0.003653 0.425324 0.619690
v 0.004351 0.399742 0.529551
v 0.026301 0.437954 0.637217
v -0.019265 0.437954 0.636863
v 0.003569 0.409114 0.630498
v -0.001475 0.431803 0.621049
v 0.059456 0.469653 0.545838
v -0.051000 0.469653 0.544982
v -0.311304 0.469195 -0.756413
v -0.338678 0.558709 -0.641765
v -0.283929 0.379681 -0.871061
v -0.218224 0.479139 -0.856502
v -0.245598 0.568653 -0.741854
v -0.361492 0.346747 -0.739002
v 0.403712 0.353605 -0.264234
v 0.336538 0.433781 -0.336860
v 0.403436 0.481472 -0.228792
v 0.403436 0.481472 -0.228792
v 0.336262 0.561649 -0.301417
v 0.403160 0.609339 -0.193350
v 0.403436 0.481472 -0.228792
v 0.336538 0.433781 -0.336860
v 0.336262 0.561649 -0.301417
v 0.449498 0.393950 -0.115703
v 0.404965 0.353176 -0.261858
v 0.404689 0.481044 -0.226415
v 0.340431 0.363861 -0.839211
v 0.407384 0.307150 -0.738075
v 0.407525 0.437346 -0.756382
v 0.340572 0.494057 -0.857518
v 0.407525 0.437346 -0.756382
v 0.407666 0.567543 -0.774688
v 0.340431 0.363861 -0.839211
v 0.407525 0.437346 -0.756382
v 0.340572 0.494057 -0.857518
v 0.408637 0.307372 -0.735656
v 0.453360 0.384430 -0.614043
v 0.408778 0.437568 -0.753962
v 0.028650 0.753189 -0.794442
v 0.018098 0.784853 -0.931945
v -0.097768 0.753190 -0.878247
v -0.213634 0.721526 -0.824549
v 0.140486 0.753190 -0.900663
v 0.262874 0.721526 -0.869382
v 0.151039 0.721526 -0.763161
v -0.087216 0.721526 -0.740744
vn -0.4431 -0.8736 0.2014
vn -0.2378 -0.8088 0.5378
vn -0.3129 -0.9252 -0.2147
vn 0.2850 -0.9347 -0.2123
vn 0.4128 -0.8868 0.2080
vn -0.2778 -0.3445 0.8968
vn -0.8639 -0.5034 0.0166
vn -0.4401 -0.4673 -0.7668
vn 0.7189 -0.4864 -0.4965
vn 0.7399 -0.4839 0.4674
vn 0.7398 -0.4839 0.4674
vn -0.5107 -0.2186 0.8315
vn -0.9106 -0.3065 -0.2772
vn 0.0077 -0.1549 -0.9879
vn 0.9253 -0.2702 -0.2661
vn 0.5052 -0.1836 0.8432
vn -0.6045 0.7146 0.3520
vn -0.5954 0.7072 -0.3812
vn 0.2683 0.7333 -0.6247
vn 0.7076 0.7055 0.0387
vn 0.7082 0.7050 0.0384
vn 0.2915 0.8180 0.4959
vn 0.1815 0.9577 0.2235
vn 0.3368 0.8453 0.4148
vn 0.3263 0.8468 0.4200
vn 0.3366 0.8455 0.4146
vn 0.5990 0.7146 0.3613
vn 0.2770 0.9571 -0.0854
vn 0.2813 0.9561 -0.0824
vn 0.2803 0.9568 -0.0773
vn 0.5381 0.8264 -0.1659
vn 0.5367 0.8288 -0.1581
vn 0.5370 0.8276 -0.1636
vn 0.5640 0.7177 -0.4085
vn 0.0021 0.9621 -0.2728
vn 0.0041 0.8511 -0.5251
vn 0.0041 0.8510 -0.5251
vn -0.2585 0.7333 -0.6288
vn -0.2823 0.9555 -0.0859
vn -0.2874 0.9542 -0.0830
vn -0.2894 0.9531 -0.0888
vn -0.5335 0.8301 -0.1624
vn -0.5328 0.8312 -0.1585
vn -0.7047 0.7081 0.0451
vn -0.2637 0.9646 -0.0058
vn -0.3314 0.8286 0.4513
vn -0.2991 0.8180 0.4913
vn 0.4944 0.2049 0.8448
vn 0.5426 0.1704 0.8226
vn 0.7548 0.3776 0.5363
vn 0.9300 0.3672 -0.0150
vn 0.9392 0.2122 -0.2700
vn 0.2909 0.3949 -0.8715
vn 0.0075 0.2301 -0.9731
vn -0.2773 0.3949 -0.8759
vn 0.9888 0.0533 0.1391
vn 0.4250 -0.9036 0.0530
vn -0.9297 0.3672 -0.0294
vn -0.7630 0.3776 0.5246
vn -0.5552 0.1704 0.8141
vn -0.5074 0.2049 0.8370
vn 0.9469 0.1425 0.2882
vn 0.9011 -0.3358 0.2743
vn 0.8799 -0.4743 0.0296
vn 0.6225 0.1498 -0.7681
vn 0.5895 -0.3512 -0.7274
vn 0.4279 -0.4519 -0.7827
vn -0.6105 0.1498 -0.7777
vn -0.5693 -0.3872 -0.7252
vn -0.6967 -0.5158 -0.4985
vn -0.9513 0.1425 0.2735
vn -0.8926 -0.3707 0.2566
vn -0.8926 -0.3707 0.2567
vn -0.7334 -0.5130 0.4460
vn -0.7650 0.5120 0.3907
vn -0.0076 -0.1898 0.9818
vn 0.2366 -0.3291 0.9142
vn 0.4776 -0.7997 0.3638
vn 0.4646 -0.8568 0.2237
vn 0.6975 -0.7165 -0.0140
vn 0.6974 -0.7165 -0.0140
vn 0.5872 -0.7261 -0.3579
vn 0.4377 -0.8058 -0.3988
vn 0.3130 -0.7129 -0.6276
vn -0.3366 -0.7043 -0.6250
vn -0.4592 -0.7934 -0.3996
vn -0.5762 -0.7295 -0.3686
vn 0.2059 -0.8101 0.5489
vn -0.0194 -0.8908 0.4540
vn -0.0197 -0.8752 0.4834
vn -0.6939 -0.7198 -0.0206
vn -0.4747 -0.8546 0.2106
vn -0.4907 -0.7961 0.3542
vn -0.0077 0.1600 0.9871
vn -0.0077 0.1599 0.9871
vn 0.7588 0.5120 0.4026
vn 0.7589 0.5119 0.4026
vn 0.7589 0.5120 0.4026
vn 0.7842 -0.6204 0.0112
vn 0.7841 -0.6206 0.0111
vn 0.7841 -0.6206 0.0112
vn -0.0010 -0.9909 0.1343
vn -0.0010 -0.9909 0.1344
vn -0.7285 0.4549 0.5122
vn 0.7205 0.4549 0.5235
vn -0.0006 -0.9974 0.0727
vn -0.0021 0.9638 0.2665
vn -0.7843 -0.6203 -0.0009
vn -0.7843 -0.6204 -0.0009
vn -0.7842 -0.6206 -0.0010
vn -0.7842 -0.6205 -0.0010
vn -0.7843 -0.6203 -0.0010
vn -0.7845 -0.6201 -0.0010
vn -0.7845 -0.6201 -0.0009
vn -0.7845 -0.6202 -0.0008
vn -0.7285 0.4549 0.5123
vn 0.7844 -0.6202 0.0113
vn 0.7844 -0.6202 0.0112
vn 0.7588 0.5119 0.4026
vn -0.0076 0.1601 0.9871
vn -0.3366 -0.7043 -0.6251
vn 0.5871 -0.7261 -0.3579
vn -0.7650 0.5120 0.3908
vn -0.7053 -0.4937 -0.5087
vn -0.6968 -0.5158 -0.4985
vn -0.5461 -0.4030 -0.7344
vn -0.6733 0.0880 -0.7342
vn -0.6554 0.2003 -0.7282
vn -0.5355 0.2872 -0.7942
vn 0.4279 -0.4520 -0.7827
vn -0.9459 0.3225 0.0366
vn -0.9481 0.1542 -0.2780
vn -0.9191 0.2859 -0.2711
vn -0.9410 0.2484 -0.2299
vn -0.8276 0.3395 -0.4469
vn -0.0654 0.9976 -0.0208
vn -0.9901 -0.0837 -0.1125
vn 0.7892 0.3762 -0.4855
vn -0.3346 0.8402 0.4266
vn -0.3391 0.8402 0.4231
vn -0.3345 0.8404 0.4265
vn -0.3414 0.8402 0.4213
vn -0.3388 0.8428 0.4181
vn 0.2630 -0.9648 0.0042
vn 0.2632 -0.9647 0.0046
vn 0.2631 -0.9647 0.0044
vn 0.2504 0.9681 0.0054
vn -0.1701 0.9612 0.2169
vn -0.7109 0.7028 0.0272
vn -0.7079 0.7057 0.0277
vn -0.7111 0.7025 0.0271
vn -0.7082 0.7055 0.0277
vn -0.5331 0.8303 -0.1621
vn -0.5314 0.8336 -0.1506
vn -0.5600 0.8108 -0.1705
vn -0.2865 0.9538 -0.0900
vn -0.2917 0.9524 -0.0892
vn -0.2891 0.9538 -0.0820
vn 0.0021 0.9621 -0.2726
vn 0.5360 0.8301 -0.1541
vn 0.2771 0.9576 -0.0785
vn 0.2751 0.9582 -0.0781
vn 0.2836 0.9555 -0.0815
vn 0.5791 0.7403 0.3416
vn 0.3399 0.8544 0.3932
vn 0.3294 0.8458 0.4196
vn 0.3323 0.8428 0.4233
vn -0.2508 -0.9680 -0.0041
vn -0.2508 -0.9680 -0.0038
vn -0.2508 -0.9680 -0.0040
vn -0.0000 1.0000 -0.0000
vn 0.7036 0.7096 0.0392
vn 0.7023 0.7108 0.0396
vn 0.2682 0.7333 -0.6247
vn -0.5576 0.7177 -0.4172
vn -0.6032 0.6677 -0.4363
vn -0.5925 0.6691 -0.4485
vn -0.6247 0.6867 0.3717
vn -0.8354 -0.3714 -0.4053
vn -0.8509 -0.4570 -0.2590
vn -0.9089 -0.3695 -0.1930
vn -0.6534 0.5131 -0.5566
vn -0.8552 0.2893 -0.4301
vn 0.8219 -0.5585 0.1122
vn -0.9275 0.3552 -0.1164
vn 1.0000 -0.0000 0.0077
vn 0.6877 0.6827 0.2471
vn 0.5336 0.6809 -0.5016
vn -0.9154 -0.1841 0.3579
vn -1.0000 -0.0000 -0.0077
vn -0.7030 -0.6768 -0.2186
vn -0.5524 0.8288 0.0894
vn 0.9851 -0.0744 0.1552
vn 0.5914 -0.8009 0.0933
vn -0.5336 -0.6809 0.5016
vn -0.8784 0.2125 -0.4281
vn 0.7030 0.6768 0.2186
vn 0.8191 0.4840 -0.3079
vn 0.9105 0.1891 -0.3677
vn -0.8920 0.0060 0.4521
vn 0.8090 -0.0827 -0.5819
vn 0.9466 -0.0459 -0.3190
vn -0.7511 -0.6573 0.0619
vn 0.8587 0.5120 -0.0198
vn -0.7564 -0.6502 0.0716
vn -0.6026 0.7939 -0.0810
vn 0.7511 0.6573 -0.0619
vn 0.7462 -0.6643 0.0436
vn -0.5914 0.8009 -0.0933
vn -0.1544 0.9601 0.2330
vn 0.1955 0.9589 0.2058
vn -0.2508 -0.9680 -0.0042
vn 0.2633 -0.9647 0.0048
vt 0.755648 0.414924
vt 0.781104 0.463601
vt 0.723373 0.463601
vt 0.948358 0.792960
vt 0.995933 0.792960
vt 0.980709 0.836723
vt 0.505988 0.129805
vt 0.474687 0.080496
vt 0.539941 0.080496
vt 0.781275 0.507943
vt 0.723373 0.507943
vt 0.751154 0.463601
vt 0.947541 0.442534
vt 0.893936 0.442534
vt 0.924655 0.390110
vt 0.662999 0.417019
vt 0.662999 0.471441
vt 0.603780 0.431156
vt 0.126160 0.747728
vt 0.084107 0.784225
vt 0.084107 0.726446
vt 0.981181 0.423742
vt 0.996994 0.471892
vt 0.948358 0.471892
vt 0.948358 0.278366
vt 0.997363 0.278366
vt 0.952587 0.327121
vt 0.947856 0.246838
vt 0.947856 0.299430
vt 0.893936 0.270308
vt 0.381143 0.759583
vt 0.432218 0.726446
vt 0.432218 0.782984
vt 0.374191 0.169661
vt 0.339899 0.137328
vt 0.408053 0.137328
vt 0.722219 0.324356
vt 0.663945 0.324356
vt 0.703801 0.269069
vt 0.448886 0.726106
vt 0.402143 0.711618
vt 0.448886 0.667922
vt 0.815718 0.324251
vt 0.837978 0.375629
vt 0.781647 0.375629
vt 0.562160 0.607281
vt 0.510436 0.584283
vt 0.562160 0.547116
vt 0.446088 0.093861
vt 0.474687 0.138212
vt 0.408053 0.138212
vt 0.703510 0.809017
vt 0.654077 0.839874
vt 0.654077 0.784225
vt 0.056212 0.607281
vt 0.000000 0.585620
vt 0.056212 0.547116
vt 0.445344 0.371092
vt 0.474687 0.410820
vt 0.408053 0.410820
vt 0.153362 0.926182
vt 0.102241 0.949496
vt 0.102241 0.896087
vt 0.056186 0.607949
vt 0.024682 0.666665
vt 0.000000 0.607949
vt 0.640947 0.258620
vt 0.663945 0.310344
vt 0.603780 0.310344
vt 0.781647 0.696084
vt 0.837823 0.731197
vt 0.781647 0.749493
vt 0.233983 0.414840
vt 0.175317 0.380190
vt 0.233983 0.348593
vt 0.707323 0.452928
vt 0.722372 0.503509
vt 0.663945 0.503509
vt 0.959845 0.613066
vt 0.948358 0.566554
vt 0.996274 0.566554
vt 0.141813 0.280438
vt 0.185807 0.314515
vt 0.141813 0.348592
vt 0.429329 0.865504
vt 0.379586 0.895858
vt 0.379586 0.840556
vt 0.133075 0.415226
vt 0.133075 0.481474
vt 0.087786 0.453165
vt 0.292648 0.380190
vt 0.108661 0.280416
vt 0.059024 0.246282
vt 0.108661 0.212282
vt 0.630876 0.471441
vt 0.603780 0.517466
vt 0.112371 0.607949
vt 0.087689 0.666665
vt 0.947535 0.590699
vt 0.947535 0.640088
vt 0.893936 0.630287
vt 0.674695 0.879443
vt 0.627918 0.895815
vt 0.627918 0.840557
vt 0.838253 0.487762
vt 0.893698 0.497717
vt 0.838253 0.537321
vt 0.736183 0.773576
vt 0.689861 0.783052
vt 0.689861 0.726446
vt 0.406908 0.839755
vt 0.351820 0.808604
vt 0.406908 0.784225
vt 0.474302 0.274975
vt 0.408053 0.274975
vt 0.433127 0.226916
vt 0.339899 0.047271
vt 0.271743 0.047271
vt 0.305820 -0.000000
vt 0.237666 0.000000
vt 0.271743 0.059024
vt 0.203587 0.059024
vt 0.305820 0.094541
vt 0.893936 0.097123
vt 0.948142 0.097123
vt 0.408053 0.040327
vt 0.339899 0.040327
vt 0.603780 0.048337
vt 0.576447 0.096674
vt 0.540495 0.048337
vt 0.828777 0.138965
vt 0.781647 0.092643
vt 0.838253 0.092643
vt 0.588425 0.782984
vt 0.588425 0.726446
vt 0.637246 0.735446
vt 0.233309 0.879433
vt 0.280098 0.840557
vt 0.280098 0.896023
vt 0.046630 0.848376
vt 0.000000 0.896087
vt 0.000000 0.840557
vt 0.326674 0.347986
vt 0.273795 0.317013
vt 0.326674 0.280438
vt 0.534368 0.782777
vt 0.534368 0.726446
vt 0.588425 0.747968
vt 0.456342 0.784225
vt 0.456342 0.839874
vt 0.406908 0.809017
vt 0.838253 0.098369
vt 0.882846 0.049433
vt 0.893903 0.098369
vt 0.948358 -0.000000
vt 1.000000 -0.000000
vt 0.965670 0.047088
vt 0.505776 0.809017
vt 0.461181 0.453657
vt 0.420933 0.480962
vt 0.420933 0.415226
vt 0.781263 0.593582
vt 0.744509 0.635360
vt 0.723373 0.593582
vt 0.139890 0.896086
vt 0.093260 0.848376
vt 0.139890 0.840556
vt 0.723373 0.678203
vt 0.781152 0.678203
vt 0.773324 0.721046
vt 0.418101 0.917086
vt 0.379947 0.949356
vt 0.379947 0.896087
vt 0.026626 0.952496
vt 0.026626 0.996753
vt -0.000000 0.978037
vt 0.000000 0.949496
vt -0.000000 0.143245
vt 0.062721 0.177826
vt 0.000040 0.212282
vt 0.203587 0.000000
vt 0.173283 0.045839
vt 0.132060 0.000000
vt 0.893743 0.537321
vt 0.860505 0.584974
vt 0.316280 0.510987
vt 0.266009 0.545115
vt 0.266009 0.481860
vt 0.328901 0.783179
vt 0.328901 0.726446
vt 0.381143 0.747516
vt 0.642115 0.947856
vt 0.616318 0.896086
vt 0.665324 0.896086
vt 0.781214 0.177869
vt 0.765019 0.227626
vt 0.723373 0.177869
vt 0.603646 0.155671
vt 0.582883 0.185169
vt 0.540495 0.155671
vt 0.713522 0.883619
vt 0.761793 0.840557
vt 0.761793 0.894923
vt 0.539375 0.257516
vt 0.500592 0.309994
vt 0.474687 0.257516
vt 0.307728 0.726446
vt 0.262251 0.699986
vt 0.307728 0.667922
vt 0.980651 0.704039
vt 0.996346 0.748499
vt 0.948358 0.748499
vt 0.800268 0.896086
vt 0.843237 0.896086
vt 0.828301 0.947965
vt 0.663945 0.158496
vt 0.693642 0.124028
vt 0.723373 0.158496
vt 0.859953 0.295231
vt 0.893936 0.343163
vt 0.838253 0.343163
vt 0.437143 0.666705
vt 0.385382 0.641140
vt 0.437143 0.607949
vt 0.987665 0.141655
vt 0.998329 0.188939
vt 0.948358 0.188939
vt 0.979379 0.946719
vt 0.979226 0.946931
vt 0.979155 0.946719
vt 0.126499 0.993753
vt 0.126499 0.949495
vt 0.153125 0.962211
vt 0.153125 0.990752
vt 0.312667 0.949525
vt 0.316817 0.949496
vt 0.319938 0.968380
vt 0.311860 0.968380
vt 0.241652 0.951320
vt 0.241652 0.970285
vt 0.228655 0.957778
vt 0.228655 0.949495
vt 0.265590 0.951042
vt 0.265590 0.969299
vt 0.253621 0.957469
vt 0.253621 0.949496
vt 0.323527 0.967753
vt 0.323527 0.949496
vt 0.335496 0.958234
vt 0.335496 0.966207
vt 0.887140 0.843516
vt 0.887140 0.889488
vt 0.858917 0.870204
vt 0.858917 0.840557
vt 0.350595 0.949671
vt 0.353908 0.949496
vt 0.353908 0.967676
vt 0.347465 0.968018
vt 0.265590 0.949496
vt 0.269181 0.949811
vt 0.272581 0.969039
vt 0.265590 0.968481
vt 0.306746 0.949496
vt 0.310350 0.949525
vt 0.311860 0.968450
vt 0.304847 0.968450
vt 0.319938 0.949496
vt 0.320138 0.949534
vt 0.323527 0.968215
vt 0.319938 0.968545
vt 0.978445 0.943412
vt 0.978551 0.943238
vt 0.998077 0.943238
vt 0.997141 0.946719
vt 0.979673 0.943238
vt 0.978445 0.940156
vt 0.996828 0.937244
vt 0.999215 0.943238
vt 0.272581 0.949564
vt 0.272752 0.949496
vt 0.275664 0.967878
vt 0.272581 0.969106
vt 0.353908 0.949536
vt 0.354087 0.949496
vt 0.357145 0.967418
vt 0.353908 0.968148
vt 0.126499 0.949496
vt 0.126499 0.995468
vt 0.098275 0.992509
vt 0.098275 0.962861
vt 0.540495 0.346526
vt 0.602792 0.346526
vt 0.599833 0.374749
vt 0.553861 0.374749
vt 0.124347 0.484819
vt 0.124347 0.547116
vt 0.096124 0.527832
vt 0.096124 0.481860
vt 0.241652 0.969299
vt 0.241652 0.951042
vt 0.179751 0.979583
vt 0.179751 0.951042
vt 0.191721 0.949496
vt 0.191721 0.967753
vt 0.204717 0.978037
vt 0.204717 0.949496
vt 0.216686 0.958234
vt 0.216686 0.976491
vt 0.347465 0.949496
vt 0.347465 0.967753
vt 0.228656 0.949495
vt 0.228656 0.978037
vt 0.949904 0.937244
vt 0.978445 0.937244
vt 0.966615 0.949214
vt 0.948358 0.949214
vt 0.300748 0.949496
vt 0.300748 0.968460
vt 0.287751 0.966636
vt 0.287752 0.958354
vt 0.204717 0.979143
vt 0.191721 0.977319
vt 0.191721 0.958354
vt 0.950182 0.924248
vt 0.979830 0.924248
vt 0.967323 0.937244
vt 0.948358 0.937244
vt 0.283607 0.949702
vt 0.287752 0.949496
vt 0.287752 0.968368
vt 0.279681 0.968714
vt 0.275664 0.949606
vt 0.275865 0.949496
vt 0.279681 0.967979
vt 0.275664 0.969019
vt 0.300977 0.968615
vt 0.300748 0.968636
vt 0.304847 0.950144
vt 0.053253 0.949496
vt 0.053253 0.978037
vt 0.603468 0.241294
vt 0.543495 0.241294
vt 0.540495 0.214667
vt 0.584752 0.214667
vt 0.437143 0.667922
vt 0.463769 0.620664
vt 0.463769 0.664922
vt 0.979003 0.946931
vt 0.978931 0.946719
vt 0.978445 0.946901
vt 0.978576 0.946719
vt 0.978706 0.946901
vt 0.978778 0.946719
vt 0.978931 0.946931
vt 0.978706 0.946931
vt 0.997105 0.327121
vt 0.997105 0.375592
vt 0.948358 0.364599
vt 0.948358 0.094372
vt 0.998329 0.094372
vt 0.959021 0.141655
vt 0.987665 0.047088
vt 0.692015 0.667922
vt 0.692015 0.725653
vt 0.639334 0.693942
vt 0.586654 0.667922
vt 0.639334 0.699633
vt 0.586654 0.725653
vt 0.723373 -0.000000
vt 0.781104 -0.000000
vt 0.749393 0.052681
vt 0.722701 0.369780
vt 0.663945 0.369780
vt 0.696150 0.324356
vt 0.722702 0.369780
vt 0.690496 0.415204
vt 0.859953 0.247300
vt 0.893936 0.295231
vt 0.838253 0.295231
vt 0.098275 0.949496
vt 0.098275 0.994992
vt 0.053253 0.988285
vt 0.693677 0.089560
vt 0.663945 0.055091
vt 0.723373 0.055091
vt 0.663945 0.124028
vt 0.693642 0.089560
vt 0.723373 0.124028
vt 0.714329 0.896086
vt 0.757298 0.896086
vt 0.742362 0.947965
vt 0.757298 0.947965
vt 0.772235 0.896086
vt 0.800268 0.947965
vt 0.905824 0.780156
vt 0.893936 0.738864
vt 0.947922 0.738864
vt 0.980651 0.659578
vt 0.996345 0.704039
vt 0.948358 0.704039
vt 0.713522 0.867306
vt 0.674695 0.895507
vt 0.674695 0.840556
vt 0.980651 0.748499
vt 0.996346 0.792960
vt 0.418101 0.948701
vt 0.418101 0.896086
vt 0.468686 0.919269
vt 0.893898 0.438825
vt 0.838253 0.438825
vt 0.871977 0.390994
vt 0.860174 0.390994
vt 0.893898 0.343163
vt 0.328662 0.480480
vt 0.328662 0.415226
vt 0.380685 0.442034
vt 0.513470 0.309994
vt 0.539375 0.362472
vt 0.474687 0.362472
vt 0.539375 0.205037
vt 0.500592 0.257516
vt 0.474687 0.205037
vt 0.055554 0.546548
vt 0.055554 0.481860
vt 0.096124 0.518052
vt 0.216879 0.949021
vt 0.204482 0.896086
vt 0.254059 0.896086
vt 0.254060 0.949021
vt 0.291240 0.896086
vt 0.303637 0.949021
vt 0.603646 0.096674
vt 0.582883 0.126172
vt 0.540495 0.096674
vt 0.561258 0.126172
vt 0.603646 0.185169
vt 0.582883 0.214667
vt 0.540495 0.185169
vt 0.781214 0.227626
vt 0.765019 0.277383
vt 0.723373 0.227626
vt 0.581142 0.840556
vt 0.546718 0.895557
vt 0.528816 0.840556
vt 0.511812 0.362472
vt 0.539572 0.406827
vt 0.474687 0.406827
vt 0.593110 0.947856
vt 0.567313 0.896087
vt 0.616318 0.896087
vt 0.714329 0.947856
vt 0.665324 0.947856
vt 0.688532 0.896087
vt 0.781214 0.551804
vt 0.723373 0.551804
vt 0.745230 0.507943
vt 0.276658 0.783180
vt 0.276658 0.726446
vt 0.328901 0.747516
vt 0.224415 0.762109
vt 0.637246 0.747667
vt 0.689861 0.782778
vt 0.366551 0.510987
vt 0.316280 0.545115
vt 0.316280 0.481860
vt 0.054732 0.694310
vt 0.000000 0.726022
vt 0.000000 0.667922
vt 0.109463 0.726022
vt 0.054732 0.699634
vt 0.109463 0.667922
vt 0.893743 0.584974
vt 0.860505 0.632627
vt 0.838253 0.584974
vt 0.586654 0.726022
vt 0.541142 0.699667
vt 0.495630 0.726022
vt 0.495630 0.667922
vt 0.541142 0.694277
vt 0.203587 0.045839
vt 0.173283 0.091678
vt 0.132060 0.045839
vt 0.603780 0.362068
vt 0.663447 0.377573
vt 0.603780 0.417019
vt 0.203587 0.091678
vt 0.173283 0.137517
vt 0.132060 0.091678
vt 0.062721 0.143245
vt 0.125442 0.177826
vt 0.062762 0.212282
vt 0.125442 0.177701
vt 0.188123 0.143245
vt 0.188164 0.212282
vt 0.060438 -0.000000
vt 0.060438 0.071622
vt -0.000000 0.033368
vt 0.179751 0.949495
vt 0.179751 0.993753
vt 0.588786 0.547116
vt 0.588786 0.607089
vt 0.562160 0.604089
vt 0.562160 0.559832
vt 0.538188 0.484860
vt 0.538188 0.544833
vt 0.511562 0.526117
vt 0.511562 0.481860
vt 0.379947 0.917086
vt 0.341792 0.949355
vt 0.341792 0.896086
vt 0.948358 0.229612
vt 0.982757 0.188939
vt 0.998329 0.229612
vt 0.341792 0.917086
vt 0.303637 0.949356
vt 0.303637 0.896087
vt 0.518544 0.167421
vt 0.540495 0.205037
vt 0.731201 0.635360
vt 0.474687 0.167421
vt 0.518545 0.129805
vt 0.540495 0.167421
vt 0.893783 0.725886
vt 0.846073 0.772516
vt 0.838253 0.725886
vt 0.093260 0.888267
vt 0.046630 0.896086
vt 0.046630 0.840556
vt 0.893783 0.679257
vt 0.846073 0.725886
vt 0.838253 0.679257
vt 0.863923 0.947743
vt 0.843237 0.896087
vt 0.890057 0.896087
vt 0.760128 0.551804
vt 0.910743 0.947743
vt 0.936877 0.896087
vt 0.420933 0.453657
vt 0.380685 0.480962
vt 0.380685 0.415226
vt 0.474687 0.000000
vt 0.540423 0.000000
vt 0.501992 0.040248
vt 0.513118 0.040248
vt 0.540423 0.080496
vt 0.402143 0.726196
vt 0.354935 0.696729
vt 0.402143 0.667922
vt 0.329842 0.840557
vt 0.329842 0.895859
vt 0.280098 0.865504
vt 0.505776 0.839874
vt 0.505776 0.784225
vt 0.555210 0.809017
vt 0.751224 0.052681
vt 0.781647 0.094410
vt 0.723373 0.094410
vt 0.753796 0.136140
vt 0.751224 0.136140
vt 0.781647 0.177869
vt 0.174209 0.415226
vt 0.174209 0.481432
vt 0.133075 0.452708
vt 0.215342 0.443950
vt 0.256475 0.415226
vt 0.256475 0.481432
vt 0.215342 0.452708
vt 0.307728 0.726196
vt 0.379586 0.865504
vt 0.604644 0.784225
vt 0.604644 0.839875
vt 0.262251 0.705269
vt 0.209914 0.726106
vt 0.209914 0.667922
vt 0.171709 0.512358
vt 0.124347 0.546155
vt 0.124347 0.481860
vt 0.209914 0.705269
vt 0.157578 0.726106
vt 0.157578 0.667922
vt 0.513113 0.406827
vt 0.538982 0.462381
vt 0.474687 0.462381
vt 0.055554 0.546155
vt -0.000000 0.507729
vt 0.540495 0.241294
vt 0.601776 0.241294
vt 0.574635 0.299579
vt 0.893783 0.819146
vt 0.838253 0.819146
vt 0.838253 0.632627
vt 0.893783 0.632627
vt 0.885964 0.679256
vt 0.186520 0.848376
vt 0.139890 0.896087
vt 0.139890 0.840557
vt 0.323722 0.607949
vt 0.323722 0.547116
vt 0.366384 0.582564
vt 0.186520 0.896023
vt 0.186520 0.840557
vt 0.233309 0.857146
vt 0.281060 0.607949
vt 0.281060 0.547116
vt 0.323722 0.582564
vt 0.893855 0.237050
vt 0.838253 0.247299
vt 0.838253 0.197656
vt 0.893855 0.098369
vt 0.893855 0.148013
vt 0.838253 0.108619
vt 0.893855 0.187406
vt 0.838253 0.148013
vt 0.828777 0.185286
vt 0.781647 0.138965
vt 0.838253 0.138965
vt 0.838253 0.046322
vt 0.781647 0.046322
vt 0.791123 -0.000000
vt 0.828777 0.324251
vt 0.781647 0.277929
vt 0.838253 0.277929
vt 0.459656 0.584885
vt 0.408876 0.607358
vt 0.408876 0.547116
vt 0.414888 0.509193
vt 0.366551 0.545145
vt 0.366551 0.481860
vt 0.511562 0.545145
vt 0.463225 0.517812
vt 0.408053 0.323034
vt 0.474302 0.323034
vt 0.433127 0.371092
vt 0.199200 0.607949
vt 0.222763 0.666684
vt 0.168557 0.666684
vt 0.433127 0.323034
vt 0.914593 0.048562
vt 0.707323 0.554090
vt 0.722373 0.503509
vt 0.339899 0.094541
vt 0.305820 0.141812
vt 0.271743 0.094541
vt 0.722220 0.213783
vt 0.703803 0.269069
vt 0.663945 0.213783
vt 0.339899 0.141812
vt 0.305820 0.189083
vt 0.271743 0.141812
vt 0.237666 0.059024
vt 0.271743 0.118048
vt 0.203587 0.118048
vt 0.237664 0.118048
vt 0.271743 0.177072
vt 0.203587 0.177072
vt 0.059024 0.246361
vt -0.000000 0.280438
vt 0.000000 0.212282
vt 0.207936 0.280438
vt 0.207936 0.212282
vt 0.255206 0.246359
vt 0.703803 0.158496
vt 0.339899 0.236353
vt 0.271743 0.236353
vt 0.948142 -0.000000
vt 0.893936 -0.000000
vt 0.000000 0.481475
vt 0.000000 0.415226
vt 0.048059 0.440300
vt 0.385382 0.666684
vt 0.331176 0.666684
vt 0.354739 0.607949
vt 0.414888 0.545145
vt 0.414888 0.481860
vt 0.603780 0.000000
vt 0.567828 0.048337
vt 0.540495 0.000000
vt 0.510436 0.547116
vt 0.510436 0.607358
vt 0.828777 0.231608
vt 0.791123 0.092643
vt 0.838253 0.231608
vt 0.781647 0.231608
vt 0.048779 0.784225
vt 0.048779 0.840557
vt 0.000000 0.792983
vt 0.130322 0.071622
vt 0.130322 0.139760
vt 0.089994 0.110953
vt 0.368705 0.000000
vt 0.408036 0.040327
vt 0.627918 0.879443
vt 0.581142 0.895815
vt 0.408876 0.572621
vt 0.366384 0.607946
vt 0.366384 0.547116
vt 0.567313 0.948243
vt 0.517753 0.948243
vt 0.536008 0.896087
vt 0.947535 0.491922
vt 0.947535 0.541311
vt 0.893936 0.531510
vt 0.893936 0.689476
vt 0.947535 0.699277
vt 0.893936 0.738865
vt 0.087786 0.481860
vt 0.048059 0.452518
vt 0.087786 0.415226
vt 0.434617 0.000000
vt 0.474687 0.049509
vt 0.408053 0.049509
vt 0.171709 0.481860
vt 0.223504 0.523780
vt 0.171709 0.545553
vt 0.168557 0.607949
vt 0.143875 0.666665
vt 0.781647 0.429038
vt 0.781647 0.482447
vt 0.663102 0.517466
vt 0.112424 0.585620
vt 0.207936 0.246417
vt 0.158299 0.280416
vt 0.158299 0.212282
vt 0.108661 0.246282
vt 0.339899 0.286312
vt 0.406533 0.286312
vt 0.371313 0.344638
vt -0.000000 0.348593
vt 0.058326 0.383812
vt 0.339899 0.169661
vt 0.406533 0.169661
vt 0.371313 0.227987
vt 0.837823 0.447333
vt 0.837823 0.535856
vt 0.837823 0.589265
vt 0.781647 0.570970
vt 0.837823 0.660970
vt 0.781647 0.696083
vt 0.781647 0.642674
vt 0.479072 0.865504
vt 0.429329 0.895858
vt 0.429329 0.840556
vt 0.802376 0.815082
vt 0.752943 0.839873
vt 0.752943 0.784225
vt 0.185807 0.280438
vt 0.229801 0.314515
vt 0.185807 0.348592
vt 0.273795 0.314515
vt 0.229801 0.348592
vt 0.229801 0.280438
vt 0.351820 0.825961
vt 0.297939 0.839873
vt 0.297939 0.784225
vt 0.959845 0.659578
vt 0.948358 0.613066
vt 0.996274 0.613066
vt 0.984787 0.520042
vt 0.723026 0.415204
vt 0.693491 0.452927
vt 0.663945 0.415204
vt 0.722372 0.604671
vt 0.663945 0.604671
vt 0.436652 0.049509
vt 0.474687 0.093861
vt 0.408053 0.093861
vt 0.446088 0.182564
vt 0.116651 0.380007
vt 0.058326 0.415226
vt 0.058326 0.348593
vt 0.175317 0.383243
vt 0.116651 0.414840
vt 0.116651 0.348593
vt 0.837823 0.517561
vt 0.781647 0.535856
vt 0.781647 0.607561
vt 0.837823 0.642674
vt 0.837823 0.410742
vt 0.640947 0.051724
vt 0.663945 0.103448
vt 0.603780 0.103448
vt 0.603780 0.155172
vt 0.663945 0.155172
vt 0.626779 0.206896
vt 0.640947 -0.000000
vt 0.663945 0.051724
vt 0.603780 0.051724
vt 0.342158 0.348593
vt 0.342158 0.415226
vt 0.292648 0.375157
vt 0.391667 0.388662
vt 0.662496 0.548970
vt 0.603780 0.573652
vt 0.947535 0.640087
vt 0.947535 0.689476
vt 0.893936 0.649888
vt 0.947535 0.482122
vt 0.893936 0.491922
vt 0.893936 0.551111
vt 0.168636 0.607281
vt 0.168636 0.547116
vt 0.224848 0.568778
vt 0.281060 0.607281
vt 0.224848 0.585620
vt 0.528816 0.895858
vt 0.528816 0.840557
vt 0.838253 0.000000
vt 0.893902 0.000000
vt 0.869110 0.049433
vt 0.654077 0.809017
vt 0.604644 0.839874
vt 0.707323 0.655252
vt 0.408053 0.182564
vt 0.474687 0.182564
vt 0.436652 0.226916
vt 0.640947 0.155172
vt 0.663945 0.258620
vt 0.603780 0.258620
vt 0.640947 0.362068
vt 0.602143 0.299579
vt 0.571627 0.346526
vt 0.540495 0.299579
vt 0.246251 0.840218
vt 0.194562 0.817823
vt 0.246251 0.784225
vt 0.297939 0.806620
vt 0.495630 0.726106
vt 0.448886 0.711618
vt 0.893829 0.470537
vt 0.266009 0.521593
vt 0.223504 0.545847
vt 0.223504 0.481860
vt 0.047271 0.314515
vt 0.047271 0.348593
vt 0.047271 0.280438
vt 0.094542 0.314515
vt 0.141813 0.314515
vt 0.094542 0.348593
vt 0.094542 0.280438
vt 0.374191 0.072661
vt 0.408053 0.104994
vt 0.339899 0.104994
vt 0.373761 0.072661
vt 0.374191 0.137328
vt 0.601378 0.514727
vt 0.540495 0.514727
vt 0.571268 0.467297
vt 0.483293 0.749847
vt 0.483293 0.759583
vt 0.534368 0.782984
vt 0.576784 0.421023
vt 0.601776 0.467297
vt 0.540495 0.467297
vt 0.893936 0.194246
vt 0.947856 0.223369
vt 0.893936 0.246838
vt 0.576784 0.374749
vt 0.601776 0.421023
vt 0.540495 0.421023
vt 0.328662 0.448274
vt 0.292568 0.481422
vt 0.292568 0.415226
vt 0.948358 0.278367
vt 0.993134 0.229612
vt 0.997363 0.278367
vt 0.292568 0.448274
vt 0.256475 0.481422
vt 0.781647 0.277383
vt 0.750768 0.317569
vt 0.723373 0.277383
vt 0.964170 0.520042
vt 0.981181 0.375592
vt 0.996994 0.423742
vt 0.948358 0.423742
vt 0.779820 0.726446
vt 0.779820 0.782128
vt 0.736183 0.744257
vt 0.042053 0.762943
vt 0.042053 0.747728
vt 0.000000 0.784225
vt 0.000000 0.726446
vt 0.101449 -0.000000
vt 0.132060 0.044997
vt 0.060438 0.044997
vt 0.044997 0.071622
vt 0.044997 0.143245
vt -0.000000 0.102233
vt 0.089994 0.112634
vt 0.947541 0.390110
vt 0.893936 0.390110
vt 0.924655 0.337687
vt 0.175288 0.747893
vt 0.126160 0.783647
vt 0.126160 0.726446
vt 0.224415 0.783647
vt 0.175288 0.762200
vt 0.224415 0.726446
vt 0.517754 0.917671
vt 0.468686 0.948413
vt 0.468686 0.896086
vt 0.926471 0.828053
vt 0.947541 0.875950
vt 0.893936 0.875950
vt 0.947541 0.780156
vt 0.915006 0.828053
vt 0.893936 0.780156
vt 0.608057 0.666354
vt 0.608057 0.607949
vt 0.663149 0.642921
vt 0.552966 0.631383
vt 0.722350 0.055091
vt 0.698917 0.000000
vt 0.948358 0.880485
vt 0.995933 0.880485
vt 0.980709 0.924248
vt 0.920077 0.337687
vt 0.893936 0.299430
vt 0.948358 0.299430
vt 0.948358 0.836723
vt 0.995933 0.836723
vt 0.980709 0.880485
vt 0.157578 0.726327
vt 0.109463 0.699824
vt 0.723373 0.317569
vt 0.781104 0.317569
vt 0.748829 0.366246
vt 0.755648 0.366246
vt 0.781104 0.414924
vt 0.723373 0.414924
vt 0.948142 0.194246
vt 0.914593 0.145685
vt 0.276969 0.607949
vt 0.246326 0.666684
vt 0.222763 0.607949
vt 0.858917 0.894763
vt 0.810355 0.874105
vt 0.858917 0.840556
vt 0.508368 0.666973
vt 0.463769 0.636162
vt 0.508368 0.607949
vt 0.331176 0.607949
vt 0.552966 0.636162
vt 0.761793 0.894763
vt 0.761793 0.840556
vt 0.307613 0.666684
vt 0.097374 0.840411
vt 0.097374 0.784225
vt 0.145968 0.818250
vt 0.051121 0.949496
vt 0.000000 0.926182
vt 0.051121 0.896086
vt 0.097373 0.840411
vt 0.048779 0.806386
vt 0.097373 0.784225
vt 0.204482 0.926182
vt 0.153362 0.949496
vt 0.153362 0.896086
vt 0.102241 0.896086
vt 0.051121 0.919400
vt 0.194562 0.784225
vt 0.194562 0.840411
s 1
usemtl マテリアル.002
f 1/1/1 83/2/1 52/3/1
f 2/4/2 53/5/2 55/6/2
f 1/7/3 52/8/3 57/9/3
f 1/10/4 57/11/4 59/12/4
f 1/13/5 59/14/5 86/15/5
f 2/16/6 55/17/6 62/18/6
f 3/19/7 54/20/7 64/21/7
f 4/22/8 58/23/8 66/24/8
f 5/25/9 60/26/9 68/27/9
f 6/28/10 61/29/11 70/30/10
f 2/31/12 62/32/12 95/33/12
f 3/34/13 64/35/13 97/36/13
f 4/37/14 66/38/14 99/39/14
f 5/40/15 68/41/15 101/42/15
f 6/43/16 70/44/16 93/45/16
f 7/46/17 72/47/17 77/48/17
f 8/49/18 73/50/18 79/51/18
f 9/52/19 74/53/19 80/54/19
f 10/55/20 75/56/20 81/57/21
f 11/58/22 76/59/22 108/60/22
f 39/61/23 112/62/23 78/63/23
f 39/64/24 113/65/25 112/66/26
f 37/67/27 106/68/27 114/69/27
f 42/70/28 115/71/29 111/72/30
f 42/73/31 116/74/32 115/75/33
f 36/76/34 105/77/34 117/78/34
f 41/79/35 118/80/35 110/81/35
f 41/82/36 119/83/37 118/84/36
f 35/85/38 104/86/38 120/87/38
f 40/88/39 121/89/40 109/90/41
f 40/75/42 122/91/42 121/73/43
f 34/92/44 103/93/44 123/94/44
f 124/95/45 78/96/45 229/96/45 236/95/45
f 38/97/46 125/98/46 124/64/46
f 33/99/47 102/100/47 126/101/47
f 24/102/48 127/103/48 63/104/48
f 24/105/49 128/106/49 127/107/49
f 31/108/50 100/109/50 129/110/50
f 32/111/51 130/112/51 71/113/51
f 32/114/52 131/115/52 130/116/52
f 30/117/53 133/118/53 69/119/53
f 30/120/54 134/121/54 133/122/54
f 27/117/55 96/123/55 135/118/55
f 73/124/56 67/125/56 202/125/56 203/124/56
f 28/126/57 137/127/57 204/127/57 201/126/57
f 25/128/58 94/129/58 138/130/58
f 26/131/59 139/132/59 65/133/59
f 26/134/60 140/135/60 139/136/60
f 23/137/61 92/138/61 141/139/61
f 31/140/62 142/141/62 100/142/62
f 31/143/63 143/144/63 142/145/63
f 22/146/64 91/147/64 144/148/64
f 29/149/65 145/150/65 98/151/65
f 29/152/66 146/153/66 145/154/66
f 21/155/67 90/156/67 147/157/67
f 27/150/68 148/149/68 96/158/68
f 27/159/69 149/160/69 148/161/69
f 19/162/70 88/163/70 150/164/70
f 25/165/71 151/166/71 94/167/71
f 25/168/72 152/169/73 151/170/72
f 15/171/74 84/172/74 153/173/74
f 198/174/75 188/175/75 48/176/75 179/177/75
f 23/178/76 155/179/76 154/180/76
f 16/181/77 85/182/77 156/183/77
f 17/184/78 157/185/78 56/107/78
f 17/186/79 158/187/79 157/188/79
f 20/189/80 89/190/81 159/191/81
f 20/192/82 160/193/82 89/194/82
f 20/195/83 161/196/83 160/197/83
f 18/198/84 87/199/84 162/200/84
f 18/201/85 163/202/85 87/203/85
f 18/204/86 164/205/86 163/206/86
f 13/207/87 82/208/87 165/209/87
f 16/210/88 166/211/88 85/212/88
f 16/213/89 167/214/89 166/215/89
f 14/216/90 83/217/90 168/218/90
f 13/219/91 169/220/91 82/221/91
f 13/222/92 170/223/92 169/224/92
f 14/225/93 53/226/93 171/227/93
f 45/228/94 174/229/95 173/230/95
f 197/231/96 175/232/97 47/233/97 178/234/98
f 196/235/99 177/236/99 50/237/100 182/238/101
f 195/239/102 184/240/102 49/241/103 183/242/103
f 194/243/104 185/244/104 51/245/104 182/246/104
f 193/247/105 186/248/105 50/249/105 181/250/105
f 192/251/106 187/252/106 46/253/106 180/254/106
f 191/255/107 176/256/107 51/257/107 183/258/107
f 190/259/108 189/260/109 49/261/110 181/262/111
f 177/263/112 190/264/108 181/265/111 50/266/111
f 44/267/113 172/268/114 190/269/108 177/270/112
f 172/271/114 43/272/115 189/273/109 190/274/108
f 189/275/107 191/276/107 183/277/107 49/278/107
f 43/279/107 174/280/107 191/281/107 189/282/107
f 174/283/107 45/284/107 176/285/107 191/286/107
f 188/287/106 192/288/106 180/289/106 48/290/106
f 23/291/106 154/292/106 192/293/106 188/294/106
f 154/295/106 24/296/106 187/297/106 192/298/106
f 184/299/105 193/300/105 181/246/105 49/245/105
f 46/301/105 178/302/105 193/303/105 184/304/105
f 178/305/105 47/306/105 186/307/105 193/308/105
f 186/309/116 194/310/104 182/250/104 50/249/104
f 47/311/116 179/312/116 194/308/104 186/307/116
f 179/313/116 48/314/116 185/315/104 194/316/104
f 185/317/102 195/318/102 183/319/103 51/320/103
f 48/306/102 180/321/102 195/322/102 185/323/102
f 180/324/102 46/325/102 184/326/102 195/327/102
f 176/328/99 196/329/99 182/330/101 51/331/101
f 45/332/117 173/333/118 196/334/99 176/335/99
f 173/336/118 44/337/118 177/317/99 196/338/99
f 187/175/96 197/174/96 178/339/98 46/340/96
f 24/341/96 63/342/119 197/343/96 187/344/96
f 63/345/119 11/224/97 175/346/97 197/347/96
f 173/230/95 172/348/120 44/349/95
f 173/350/95 174/351/95 172/352/120
f 174/353/95 43/354/95 172/355/120
f 171/356/93 84/357/93 15/358/93
f 171/359/93 53/360/93 84/361/93
f 53/362/93 2/360/93 84/359/93
f 169/363/92 171/364/92 15/365/92
f 169/366/92 170/367/92 171/368/92
f 170/369/92 14/370/92 171/371/92
f 82/372/91 54/373/91 3/374/91
f 82/375/91 169/376/91 54/373/91
f 169/377/91 15/378/91 54/379/91
f 168/380/90 86/381/90 17/382/90
f 168/383/90 83/384/90 86/385/90
f 83/386/90 1/387/90 86/388/90
f 166/389/89 168/390/89 17/391/89
f 166/392/89 167/393/89 168/394/89
f 167/395/89 14/396/89 168/397/89
f 85/398/88 56/399/88 6/400/88
f 85/401/88 166/402/88 56/403/88
f 166/404/88 17/405/88 56/4/88
f 165/406/87 88/407/87 19/408/87
f 165/409/87 82/410/87 88/411/87
f 82/412/87 3/221/87 88/413/87
f 163/414/86 165/415/86 19/416/86
f 163/417/86 164/418/86 165/419/86
f 164/420/86 13/421/86 165/422/86
f 87/423/85 58/424/121 4/425/121
f 87/426/85 163/427/85 58/428/121
f 163/429/85 19/430/121 58/431/121
f 162/432/84 90/433/84 21/434/84
f 162/435/84 87/198/84 90/200/84
f 87/436/84 4/437/84 90/438/84
f 160/439/83 162/440/83 21/441/83
f 160/442/83 161/443/83 162/444/83
f 161/445/83 18/446/83 162/447/83
f 89/448/82 60/449/122 5/450/82
f 89/451/82 160/452/82 60/453/122
f 160/454/82 21/455/122 60/456/122
f 159/457/81 91/458/81 22/459/81
f 159/457/81 89/460/81 91/458/81
f 89/461/81 5/110/81 91/462/81
f 157/463/79 159/464/79 22/465/79
f 157/466/79 158/467/79 159/468/79
f 158/469/79 20/470/79 159/471/79
f 56/472/78 61/473/78 6/474/78
f 56/475/78 157/476/78 61/366/78
f 157/477/78 22/478/78 61/479/78
f 156/480/77 93/481/77 24/482/77
f 156/483/77 85/484/77 93/485/77
f 85/486/77 6/487/77 93/488/77
f 154/489/76 156/490/76 24/491/76
f 154/492/76 155/493/76 156/494/76
f 155/495/76 16/496/76 156/497/76
f 175/498/123 198/499/75 179/234/75 47/233/75
f 11/500/123 92/501/123 198/502/75 175/503/123
f 92/504/123 23/505/123 188/506/75 198/507/75
f 153/508/74 95/509/74 26/510/74
f 153/511/74 84/512/74 95/513/74
f 84/514/74 2/515/74 95/516/74
f 151/422/72 153/517/73 26/518/72
f 151/168/72 152/519/73 153/169/73
f 152/520/73 15/521/73 153/522/73
f 94/523/71 65/524/71 7/525/71
f 94/526/71 151/527/71 65/528/71
f 151/529/71 26/530/71 65/531/71
f 150/532/124 97/533/124 28/534/124
f 150/535/70 88/162/70 97/164/125
f 88/536/70 3/534/125 97/537/125
f 148/538/126 150/539/126 28/540/126
f 148/541/69 149/542/69 150/543/69
f 149/544/69 19/545/69 150/8/69
f 96/546/127 67/547/127 8/548/127
f 96/549/128 148/550/128 67/551/128
f 148/552/129 28/553/129 67/554/129
f 147/555/67 99/556/67 30/557/130
f 147/557/67 90/556/67 99/558/67
f 90/559/67 4/560/67 99/197/67
f 145/561/66 147/562/66 30/563/66
f 145/561/66 146/564/66 147/562/66
f 146/565/66 21/566/66 147/567/66
f 98/547/65 69/568/65 9/209/65
f 98/569/65 145/550/65 69/549/65
f 145/570/65 30/571/65 69/554/65
f 144/572/64 101/573/64 32/574/64
f 144/575/64 91/576/64 101/577/64
f 91/578/64 5/579/64 101/580/64
f 142/581/63 144/582/63 32/583/63
f 142/424/63 143/584/63 144/585/63
f 143/586/63 22/587/63 144/588/63
f 100/524/62 71/589/62 10/590/62
f 100/591/62 142/592/62 71/593/62
f 142/594/62 32/595/62 71/596/62
f 141/597/61 102/598/61 33/599/61
f 141/600/61 92/601/61 102/602/61
f 92/603/61 11/604/61 102/605/61
f 139/606/60 141/607/60 33/608/60
f 139/609/60 140/610/60 141/611/60
f 140/612/60 23/608/60 141/613/60
f 65/614/59 72/615/59 7/616/59
f 65/617/59 139/618/59 72/619/59
f 139/620/59 33/621/59 72/622/59
f 138/623/131 103/624/131 34/625/131
f 138/626/58 94/627/58 103/628/58
f 94/629/58 7/630/58 103/507/58
f 136/631/132 138/632/132 34/633/132
f 136/634/133 137/635/133 138/636/133
f 137/115/134 25/114/134 138/637/134
f 67/125/135 73/124/135 8/638/135
f 34/639/136 73/640/136 203/640/136 200/639/136
f 136/631/137 34/633/137 200/633/137 199/631/137
f 135/641/55 104/642/55 35/643/55
f 135/644/55 96/645/55 104/646/55
f 96/647/55 8/648/55 104/649/55
f 133/650/54 135/651/54 35/652/54
f 133/653/54 134/654/54 135/655/54
f 134/656/54 27/657/54 135/658/54
f 69/659/53 74/660/53 9/661/53
f 69/662/53 133/644/53 74/646/53
f 133/663/53 35/664/53 74/648/53
f 98/665/138 9/638/138 105/666/138
f 130/667/52 132/668/52 36/669/52
f 130/670/52 131/671/52 132/672/52
f 71/673/51 75/674/51 10/630/51
f 71/675/51 130/676/51 75/677/51
f 130/623/51 36/678/51 75/679/51
f 129/680/50 106/622/50 37/621/50
f 129/618/50 100/617/50 106/681/50
f 100/614/50 10/682/50 106/683/50
f 127/684/49 129/685/49 37/686/49
f 127/687/49 128/688/49 129/689/49
f 128/690/49 31/691/49 129/127/49
f 63/692/48 76/693/48 11/442/48
f 63/694/48 127/695/48 76/696/48
f 127/697/48 37/698/48 76/699/48
f 126/700/47 108/701/47 39/702/47
f 126/703/47 102/704/47 108/705/47
f 102/706/47 11/707/47 108/708/47
f 124/709/139 126/710/140 39/711/141
f 124/712/139 125/713/142 126/714/140
f 125/715/142 33/716/143 126/97/140
f 12/717/144 107/718/145 231/718/146 230/717/144
f 78/63/147 112/62/147 235/62/147 229/63/147
f 124/95/148 39/719/148 78/96/148
f 123/720/149 77/55/150 38/57/151
f 123/721/149 103/722/152 77/723/150
f 103/722/152 7/724/152 77/723/150
f 121/725/43 123/726/153 38/727/154
f 121/728/43 122/729/42 123/668/153
f 122/730/155 34/731/155 123/732/155
f 109/733/41 107/718/156 12/717/157
f 109/734/41 121/735/40 107/736/156
f 121/737/40 38/738/158 107/739/156
f 120/740/38 79/741/38 40/742/38
f 120/743/38 104/744/38 79/745/38
f 104/744/38 8/52/38 79/745/38
f 118/746/36 120/747/37 40/748/36
f 118/749/36 119/750/37 120/751/37
f 119/752/37 35/753/37 120/754/37
f 110/755/35 109/756/35 12/757/159
f 110/81/35 118/80/35 109/758/35
f 118/759/35 40/760/35 109/761/35
f 117/639/34 80/762/34 41/763/34
f 117/764/34 105/765/34 80/766/34
f 105/50/34 9/767/34 80/51/34
f 115/768/33 117/769/160 41/770/160
f 115/771/33 116/772/32 117/773/160
f 116/732/32 36/726/160 117/725/160
f 111/718/30 110/774/161 12/775/162
f 111/776/30 115/735/29 110/777/161
f 115/45/29 41/778/163 110/717/161
f 114/779/164 81/780/164 42/781/164
f 114/782/27 106/783/27 81/784/27
f 106/785/27 10/786/27 81/787/27
f 112/788/165 114/789/165 42/790/165
f 112/788/26 113/791/25 114/789/166
f 113/96/25 37/792/167 114/793/166
f 111/718/168 12/775/169 230/775/169 233/718/170
f 38/97/171 124/64/171 236/64/171 232/97/171
f 112/788/171 42/790/171 234/790/171 235/788/171
f 108/794/22 113/795/22 39/796/22
f 108/14/22 76/797/22 113/798/22
f 76/701/22 37/99/22 113/799/22
f 81/800/21 116/720/172 42/801/173
f 81/802/21 75/800/20 116/801/172
f 75/803/20 36/804/20 116/604/172
f 80/805/19 119/740/19 41/806/19
f 80/807/19 74/808/19 119/809/19
f 74/810/19 35/811/174 119/570/19
f 79/762/175 122/812/175 40/763/175
f 79/813/176 73/814/176 122/815/176
f 73/640/177 34/639/177 122/78/177
f 77/780/178 125/816/178 38/781/178
f 77/784/17 72/817/17 125/818/17
f 72/68/17 33/819/17 125/69/17
f 93/820/16 128/821/16 24/822/16
f 93/823/16 70/824/16 128/825/16
f 70/823/16 31/825/16 128/826/16
f 101/827/15 131/828/15 32/478/15
f 101/410/15 68/829/15 131/105/15
f 68/830/15 29/831/15 131/832/15
f 99/833/14 134/728/14 30/657/14
f 99/834/14 66/835/14 134/836/14
f 66/837/14 27/838/14 134/839/14
f 97/840/179 137/127/179 28/126/179
f 97/841/180 64/842/180 137/843/180
f 64/844/181 25/842/181 137/841/181
f 95/845/12 140/846/12 26/847/12
f 95/33/12 62/32/12 140/848/12
f 62/849/12 23/147/12 140/850/12
f 70/851/10 143/852/11 31/853/10
f 70/854/10 61/855/11 143/856/11
f 61/857/11 22/858/11 143/859/11
f 68/860/9 146/861/9 29/862/9
f 68/863/9 60/864/9 146/865/9
f 60/866/9 21/867/9 146/565/9
f 66/868/8 149/869/8 27/870/8
f 66/24/8 58/23/8 149/871/8
f 58/872/8 19/873/8 149/874/8
f 64/875/7 152/876/7 25/877/7
f 64/21/7 54/20/7 152/878/7
f 54/879/7 15/880/7 152/881/7
f 62/882/6 155/883/6 23/884/6
f 62/885/6 55/886/6 155/887/6
f 55/888/6 16/886/6 155/885/6
f 86/889/5 158/890/5 17/891/5
f 86/892/5 59/893/5 158/894/5
f 59/895/5 20/896/5 158/897/5
f 59/898/4 161/899/4 20/900/4
f 59/901/4 57/902/4 161/903/4
f 57/904/4 18/905/4 161/906/4
f 57/907/3 164/908/3 18/909/3
f 57/907/3 52/910/3 164/908/3
f 52/911/3 13/384/3 164/912/3
f 55/913/2 167/914/2 16/915/2
f 55/916/2 53/917/2 167/918/2
f 53/919/2 14/920/2 167/921/2
f 52/922/1 170/923/1 13/580/1
f 52/924/1 83/925/1 170/926/1
f 83/927/1 14/928/1 170/929/1
f 201/930/182 199/854/182 202/931/182
f 201/932/183 204/933/183 199/934/183
f 202/935/182 199/936/182 203/937/182
f 199/938/182 200/939/182 203/940/182
f 67/554/184 28/553/184 201/553/184 202/554/184
f 137/635/185 136/634/185 199/634/185 204/635/185
f 207/124/186 205/125/186 218/125/186 219/124/186
f 98/931/187 206/931/187 205/125/187 29/125/187
f 132/124/188 207/124/188 206/931/188 98/931/188
f 29/125/189 205/125/189 207/124/189 132/124/189
f 215/932/190 216/941/190 228/941/190 226/932/190
f 105/940/191 209/940/191 208/938/191 132/938/191
f 36/942/192 210/942/192 209/940/192 105/940/192
f 132/938/193 208/938/193 210/942/193 36/942/193
f 211/936/194 212/943/194 223/943/194 224/936/194
f 98/943/195 212/943/195 211/936/195 132/936/195
f 105/944/196 213/944/196 212/943/196 98/943/196
f 132/936/197 211/936/197 213/944/197 105/944/197
f 210/942/186 208/938/186 221/938/186 222/942/186
f 29/932/198 215/932/198 214/945/198 131/945/198
f 132/941/199 216/941/199 215/932/199 29/932/199
f 131/945/200 214/945/200 216/941/200 132/941/200
f 218/125/201 217/931/201 219/124/201
f 221/938/201 220/940/201 222/942/201
f 224/936/201 223/943/201 225/944/201
f 227/945/202 226/932/202 228/941/202
f 208/938/203 209/940/203 220/940/203 221/938/203
f 212/943/190 213/944/190 225/944/190 223/943/190
f 216/941/204 214/945/204 227/945/204 228/941/204
f 205/125/205 206/931/205 217/931/205 218/125/205
f 209/940/206 210/942/206 222/942/206 220/940/206
f 213/944/207 211/936/207 224/936/207 225/944/207
f 214/945/208 215/932/208 226/932/208 227/945/208
f 206/931/209 207/124/209 219/124/209 217/931/209
f 232/946/210 236/947/210 231/948/210
f 231/949/210 229/950/210 230/951/210
f 231/952/210 236/953/210 229/954/210
f 229/955/211 233/956/211 230/957/211
f 229/958/211 235/62/211 233/959/211
f 235/960/211 234/961/211 233/948/211
f 42/70/212 111/72/168 233/72/170 234/70/212
f 107/739/145 38/738/213 232/738/213 231/739/146
o 立方体
v -0.278764 -0.651859 -0.292828
v -0.278764 0.096743 -0.292828
v 0.326991 -0.651859 -0.288133
v 0.326991 0.096743 -0.288133
v -0.283270 -0.651859 0.288472
v -0.283270 0.096743 0.288472
v 0.322486 -0.651859 0.293167
v 0.322486 0.096743 0.293167
vn 0.0077 -0.0000 -1.0000
vn 1.0000 -0.0000 0.0077
vn -0.0077 -0.0000 1.0000
vn -1.0000 -0.0000 -0.0077
vn -0.0000 -1.0000 -0.0000
vn -0.0000 1.0000 -0.0000
vt 0.375000 0.000000
vt 0.625000 0.000000
vt 0.625000 0.250000
vt 0.375000 0.250000
vt 0.625000 0.500000
vt 0.375000 0.500000
vt 0.625000 0.750000
vt 0.375000 0.750000
vt 0.625000 1.000000
vt 0.375000 1.000000
vt 0.125000 0.500000
vt 0.125000 0.750000
vt 0.875000 0.500000
vt 0.875000 0.750000
s 1
usemtl マテリアル.003
f 237/962/214 238/963/214 240/964/214 239/965/214
f 239/965/215 240/964/215 244/966/215 243/967/215
f 243/967/216 244/966/216 242/968/216 241/969/216
f 241/969/217 242/968/217 238/970/217 237/971/217
f 239/972/218 243/967/218 241/969/218 237/973/218
f 244/966/219 240/974/219 238/975/219 242/968/219
o 立方体.001
v -0.279830 -0.842769 -0.109274
v -0.279830 -0.628577 -0.109274
v -0.117653 -0.842769 -0.108017
v -0.117652 -0.628577 -0.108017
v -0.281490 -0.842769 0.104924
v -0.281490 -0.628577 0.104924
v -0.119313 -0.842769 0.106181
v -0.119313 -0.628577 0.106181
vn 0.0077 -0.0000 -1.0000
vn 1.0000 -0.0000 0.0077
vn -0.0077 -0.0000 1.0000
vn -1.0000 -0.0000 -0.0077
vn -0.0000 -1.0000 -0.0000
vn -0.0000 1.0000 -0.0000
vt 0.375000 0.000000
vt 0.625000 0.000000
vt 0.625000 0.250000
vt 0.375000 0.250000
vt 0.625000 0.500000
vt 0.375000 0.500000
vt 0.625000 0.750000
vt 0.375000 0.750000
vt 0.625000 1.000000
vt 0.375000 1.000000
vt 0.125000 0.500000
vt 0.125000 0.750000
vt 0.875000 0.500000
vt 0.875000 0.750000
s 1
usemtl マテリアル.005
f 245/976/220 246/977/220 248/978/220 247/979/220
f 247/979/221 248/978/221 252/980/221 251/981/221
f 251/981/222 252/980/222 250/982/222 249/983/222
f 249/983/223 250/982/223 246/984/223 245/985/223
f 247/986/224 251/981/224 249/983/224 245/987/224
f 252/980/225 248/988/225 246/989/225 250/982/225
o 立方体.002
v 0.160121 -0.842769 -0.105864
v 0.160121 -0.628577 -0.105864
v 0.322298 -0.842769 -0.104608
v 0.322298 -0.628577 -0.104608
v 0.158461 -0.842769 0.108333
v 0.158461 -0.628577 0.108333
v 0.320638 -0.842769 0.109590
v 0.320638 -0.628577 0.109590
vn 0.0077 -0.0000 -1.0000
vn 1.0000 -0.0000 0.0077
vn -0.0077 -0.0000 1.0000
vn -1.0000 -0.0000 -0.0077
vn -0.0000 -1.0000 -0.0000
vn -0.0000 1.0000 -0.0000
vt 0.375000 0.000000
vt 0.625000 0.000000
vt 0.625000 0.250000
vt 0.375000 0.250000
vt 0.625000 0.500000
vt 0.375000 0.500000
vt 0.625000 0.750000
vt 0.375000 0.750000
vt 0.625000 1.000000
vt 0.375000 1.000000
vt 0.125000 0.500000
vt 0.125000 0.750000
vt 0.875000 0.500000
vt 0.875000 0.750000
s 1
usemtl マテリアル.006
f 253/990/226 254/991/226 256/992/226 255/993/226
f 255/993/227 256/992/227 260/994/227 259/995/227
f 259/995/228 260/994/228 258/996/228 257/997/228
f 257/997/229 258/996/229 254/998/229 253/999/229
f 255/1000/230 259/995/230 257/997/230 253/1001/230
f 260/994/231 256/1002/231 254/1003/231 258/996/231
o 立方体.003
v -0.514306 -0.594304 -0.148950
v -0.237706 -0.024809 -0.146807
v -0.707797 -0.485099 -0.150450
v -0.431197 0.084396 -0.148306
v -0.516553 -0.594304 0.140961
v -0.239953 -0.024809 0.143105
v -0.710044 -0.485099 0.139462
v -0.433444 0.084396 0.141605
vn 0.0077 -0.0000 -1.0000
vn -0.8995 0.4369 -0.0070
vn -0.0077 -0.0000 1.0000
vn 0.8995 -0.4369 0.0070
vn -0.4915 -0.8709 -0.0038
vn 0.4915 0.8709 0.0038
vt 0.375000 0.000000
vt 0.375000 0.250000
vt 0.625000 0.250000
vt 0.625000 0.000000
vt 0.375000 0.500000
vt 0.625000 0.500000
vt 0.375000 0.750000
vt 0.625000 0.750000
vt 0.375000 1.000000
vt 0.625000 1.000000
vt 0.125000 0.500000
vt 0.125000 0.750000
vt 0.875000 0.750000
vt 0.875000 0.500000
s 1
usemtl マテリアル
f 261/1004/232 263/1005/232 264/1006/232 262/1007/232
f 263/1005/233 267/1008/233 268/1009/233 264/1006/233
f 267/1008/234 265/1010/234 266/1011/234 268/1009/234
f 265/1010/235 261/1012/235 262/1013/235 266/1011/235
f 263/1014/236 261/1015/236 265/1010/236 267/1008/236
f 268/1009/237 266/1011/237 262/1016/237 264/1017/237
o 立方体.004
v 0.567637 -0.594304 0.148785
v 0.291029 -0.024809 0.150420
v 0.761134 -0.485099 0.147640
v 0.484526 0.084396 0.149276
v 0.566597 -0.594304 -0.141130
v 0.289990 -0.024809 -0.139494
v 0.760094 -0.485099 -0.142274
v 0.483486 0.084396 -0.140638
vn 0.0059 -0.0000 1.0000
vn 0.8995 0.4369 -0.0032
vn -0.0059 -0.0000 -1.0000
vn -0.8995 -0.4369 0.0032
vn 0.4915 -0.8709 -0.0018
vn -0.4915 0.8709 0.0018
vt 0.375000 0.000000
vt 0.375000 0.250000
vt 0.625000 0.250000
vt 0.625000 0.000000
vt 0.375000 0.500000
vt 0.625000 0.500000
vt 0.375000 0.750000
vt 0.625000 0.750000
vt 0.375000 1.000000
vt 0.625000 1.000000
vt 0.125000 0.500000
vt 0.125000 0.750000
vt 0.875000 0.750000
vt 0.875000 0.500000
s 1
usemtl マテリアル.004
f 269/1018/238 271/1019/238 272/1020/238 270/1021/238
f 271/1019/239 275/1022/239 276/1023/239 272/1020/239
f 275/1022/240 273/1024/240 274/1025/240 276/1023/240
f 273/1024/241 269/1026/241 270/1027/241 274/1025/241
f 271/1028/242 269/1029/242 273/1024/242 275/1022/242
f 276/1023/243 274/1025/243 270/1030/243 272/1031/243
