# Blender 3.6.23
# www.blender.org
mtllib bullet.mtl
o ICO球
v 0.000000 0.789275 -0.695912
v -0.158507 0.484187 -0.310918
v -0.335305 0.867547 -0.311287
v -0.048726 1.143251 -0.311560
v 0.305189 0.930295 -0.311347
v 0.237347 0.522969 -0.310955
v -0.305189 0.649600 0.311347
v -0.237347 1.056926 0.310955
v 0.158507 1.095707 0.310918
v 0.335305 0.712348 0.311287
v 0.048726 0.436644 0.311560
v -0.000000 0.790619 0.695913
v -0.165663 0.827956 -0.497615
v -0.078314 0.638548 -0.497434
v -0.243973 0.677223 -0.307403
v 0.038952 0.506977 -0.307244
v 0.117267 0.657708 -0.497452
v -0.024073 0.964165 -0.497751
v -0.189735 1.002834 -0.307717
v 0.150783 0.858957 -0.497644
v 0.126710 1.033835 -0.307746
v 0.268046 0.727384 -0.307452
v -0.054242 0.464335 0.000311
v 0.141340 0.483496 0.000293
v -0.316438 0.758946 0.000030
v -0.229086 0.569548 0.000212
v -0.141340 1.096398 -0.000293
v -0.282916 0.960186 -0.000163
v 0.229087 1.010346 -0.000211
v 0.054242 1.115559 -0.000311
v 0.282916 0.619708 0.000163
v 0.316438 0.820948 -0.000030
v -0.126710 0.546059 0.307746
v -0.268046 0.852510 0.307452
v -0.038952 1.072917 0.307244
v 0.243973 0.902672 0.307404
v 0.189735 0.577061 0.307717
v -0.150783 0.720937 0.497645
v 0.024073 0.615730 0.497751
v -0.117267 0.922186 0.497452
v 0.078314 0.941347 0.497434
v 0.165663 0.751939 0.497615
vn -0.7519 -0.3473 -0.5604
vn 0.1022 -0.7875 -0.6078
vn -0.5629 0.5846 -0.5843
vn 0.4239 0.7040 -0.5698
vn 0.8110 -0.1356 -0.5691
vn 0.1159 -0.9880 -0.1019
vn -0.8966 -0.4322 -0.0964
vn -0.7033 0.7034 -0.1034
vn 0.4978 0.8615 -0.0999
vn 0.9843 -0.1461 -0.0987
vn -0.5121 -0.8509 0.1173
vn -0.9797 0.1633 0.1163
vn -0.0968 0.9881 0.1199
vn 0.9022 0.4162 0.1136
vn 0.6882 -0.7152 0.1216
vn -0.3943 -0.7004 0.5950
vn -0.7978 0.1096 0.5929
vn -0.1022 0.7875 0.6078
vn 0.7266 0.3606 0.5849
vn 0.5684 -0.5541 0.6082
vn 0.5629 -0.5846 0.5843
vn 0.5546 -0.5759 0.6006
vn 0.5318 -0.5883 0.6092
vn 0.7519 0.3473 0.5604
vn 0.7416 0.3426 0.5768
vn 0.7455 0.3194 0.5849
vn -0.0792 0.8087 0.5829
vn -0.0780 0.7967 0.5993
vn -0.0526 0.7931 0.6068
vn -0.8110 0.1356 0.5691
vn -0.7996 0.1337 0.5855
vn -0.7890 0.1558 0.5943
vn -0.4239 -0.7040 0.5698
vn -0.4180 -0.6941 0.5862
vn -0.4351 -0.6770 0.5936
vn 0.7033 -0.7034 0.1034
vn 0.6892 -0.7162 0.1095
vn 0.6757 -0.7298 0.1035
vn 0.8966 0.4322 0.0964
vn 0.9033 0.4167 0.1021
vn 0.9108 0.4015 0.0965
vn -0.1159 0.9880 0.1019
vn -0.0969 0.9894 0.1078
vn -0.0780 0.9917 0.1017
vn -0.9843 0.1461 0.0987
vn -0.9810 0.1635 0.1047
vn -0.9785 0.1810 0.0989
vn -0.4978 -0.8615 0.0999
vn -0.5128 -0.8520 0.1056
vn -0.5281 -0.8433 0.0997
vn 0.9797 -0.1633 -0.1163
vn 0.9810 -0.1635 -0.1047
vn 0.9785 -0.1810 -0.0989
vn 0.5121 0.8509 -0.1173
vn 0.5128 0.8520 -0.1056
vn 0.5281 0.8433 -0.0997
vn -0.6882 0.7152 -0.1216
vn -0.6892 0.7162 -0.1095
vn -0.6757 0.7298 -0.1035
vn -0.9022 -0.4162 -0.1136
vn -0.9033 -0.4167 -0.1021
vn -0.9108 -0.4015 -0.0965
vn 0.0968 -0.9881 -0.1199
vn 0.0969 -0.9894 -0.1078
vn 0.0780 -0.9917 -0.1017
vn 0.7978 -0.1096 -0.5929
vn 0.7996 -0.1337 -0.5855
vn 0.7890 -0.1558 -0.5943
vn 0.3943 0.7004 -0.5950
vn 0.4180 0.6941 -0.5862
vn 0.4351 0.6770 -0.5936
vn -0.5684 0.5541 -0.6082
vn -0.5546 0.5759 -0.6006
vn -0.5318 0.5883 -0.6092
vn 0.0526 -0.7931 -0.6068
vn 0.0780 -0.7967 -0.5993
vn 0.0792 -0.8087 -0.5829
vn -0.7266 -0.3606 -0.5849
vn -0.7416 -0.3426 -0.5768
vn -0.7455 -0.3194 -0.5849
vt 0.181819 0.000000
vt 0.227273 0.078731
vt 0.136365 0.078731
vt 0.272728 0.157461
vt 0.318182 0.078731
vt 0.363637 0.157461
vt 0.909091 0.000000
vt 0.954545 0.078731
vt 0.863636 0.078731
vt 0.727273 0.000000
vt 0.772727 0.078731
vt 0.681818 0.078731
vt 0.545455 0.000000
vt 0.590909 0.078731
vt 0.500000 0.078731
vt 0.318182 0.236191
vt 0.090910 0.157461
vt 0.181819 0.157461
vt 0.136365 0.236191
vt 0.818182 0.157461
vt 0.909091 0.157461
vt 0.863636 0.236191
vt 0.636364 0.157461
vt 0.727273 0.157461
vt 0.681818 0.236191
vt 0.454546 0.157461
vt 0.545455 0.157461
vt 0.500000 0.236191
vt 0.227273 0.236191
vt 0.045455 0.236191
vt 0.772727 0.236191
vt 0.590909 0.236191
vt 0.409092 0.236191
vt 0.181819 0.314921
vt 0.272728 0.314921
vt 0.227273 0.393651
vt 0.000000 0.314921
vt 0.090910 0.314921
vt 0.045455 0.393651
vt 0.727273 0.314921
vt 0.818182 0.314921
vt 0.772727 0.393651
vt 0.545455 0.314921
vt 0.636364 0.314921
vt 0.590909 0.393651
vt 0.363637 0.314921
vt 0.454546 0.314921
vt 0.409092 0.393651
vt 0.500000 0.393651
vt 0.454546 0.472382
vt 0.681818 0.393651
vt 0.636364 0.472382
vt 0.863636 0.393651
vt 0.818182 0.472382
vt 0.909091 0.314921
vt 0.136365 0.393651
vt 0.090910 0.472382
vt 0.318182 0.393651
vt 0.272728 0.472382
vt 0.954545 0.236191
vt 1.000000 0.157461
vt 0.409092 0.078731
vt 0.363637 0.000000
s 0
usemtl マテリアル
f 1/1/1 14/2/1 13/3/1
f 2/4/2 14/5/2 16/6/2
f 1/7/3 13/8/3 18/9/3
f 1/10/4 18/11/4 20/12/4
f 1/13/5 20/14/5 17/15/5
f 2/4/6 16/6/6 23/16/6
f 3/17/7 15/18/7 25/19/7
f 4/20/8 19/21/8 27/22/8
f 5/23/9 21/24/9 29/25/9
f 6/26/10 22/27/10 31/28/10
f 2/4/11 23/16/11 26/29/11
f 3/17/12 25/19/12 28/30/12
f 4/20/13 27/22/13 30/31/13
f 5/23/14 29/25/14 32/32/14
f 6/26/15 31/28/15 24/33/15
f 7/34/16 33/35/16 38/36/16
f 8/37/17 34/38/17 40/39/17
f 9/40/18 35/41/18 41/42/18
f 10/43/19 36/44/19 42/45/19
f 11/46/20 37/47/20 39/48/20
f 39/48/21 42/49/21 12/50/21
f 39/48/22 37/47/22 42/49/22
f 37/47/23 10/43/23 42/49/23
f 42/45/24 41/51/24 12/52/24
f 42/45/25 36/44/25 41/51/25
f 36/44/26 9/40/26 41/51/26
f 41/42/27 40/53/27 12/54/27
f 41/42/28 35/41/28 40/53/28
f 35/41/29 8/55/29 40/53/29
f 40/39/30 38/56/30 12/57/30
f 40/39/31 34/38/31 38/56/31
f 34/38/32 7/34/32 38/56/32
f 38/36/33 39/58/33 12/59/33
f 38/36/34 33/35/34 39/58/34
f 33/35/35 11/46/35 39/58/35
f 24/33/36 37/47/36 11/46/36
f 24/33/37 31/28/37 37/47/37
f 31/28/38 10/43/38 37/47/38
f 32/32/39 36/44/39 10/43/39
f 32/32/40 29/25/40 36/44/40
f 29/25/41 9/40/41 36/44/41
f 30/31/42 35/41/42 9/40/42
f 30/31/43 27/22/43 35/41/43
f 27/22/44 8/55/44 35/41/44
f 28/30/45 34/38/45 8/37/45
f 28/30/46 25/19/46 34/38/46
f 25/19/47 7/34/47 34/38/47
f 26/29/48 33/35/48 7/34/48
f 26/29/49 23/16/49 33/35/49
f 23/16/50 11/46/50 33/35/50
f 31/28/51 32/32/51 10/43/51
f 31/28/52 22/27/52 32/32/52
f 22/27/53 5/23/53 32/32/53
f 29/25/54 30/31/54 9/40/54
f 29/25/55 21/24/55 30/31/55
f 21/24/56 4/20/56 30/31/56
f 27/22/57 28/60/57 8/55/57
f 27/22/58 19/21/58 28/60/58
f 19/21/59 3/61/59 28/60/59
f 25/19/60 26/29/60 7/34/60
f 25/19/61 15/18/61 26/29/61
f 15/18/62 2/4/62 26/29/62
f 23/16/63 24/33/63 11/46/63
f 23/16/64 16/6/64 24/33/64
f 16/6/65 6/26/65 24/33/65
f 17/15/66 22/27/66 6/26/66
f 17/15/67 20/14/67 22/27/67
f 20/14/68 5/23/68 22/27/68
f 20/12/69 21/24/69 5/23/69
f 20/12/70 18/11/70 21/24/70
f 18/11/71 4/20/71 21/24/71
f 18/9/72 19/21/72 4/20/72
f 18/9/73 13/8/73 19/21/73
f 13/8/74 3/61/74 19/21/74
f 16/6/75 17/62/75 6/26/75
f 16/6/76 14/5/76 17/62/76
f 14/5/77 1/63/77 17/62/77
f 13/3/78 15/18/78 3/17/78
f 13/3/79 14/2/79 15/18/79
f 14/2/80 2/4/80 15/18/80
